<svg width="33" height="33" viewBox="0 0 33 33" fill="none" xmlns="http://www.w3.org/2000/svg">
<g clip-path="url(#clip0_1_256)">
<path d="M28.2391 0.90856C27.7375 0.684438 27.1464 0.771651 26.7361 1.13019L24.5711 2.98905C24.5122 3.03988 24.4233 3.03957 24.3647 2.98844L21.419 0.433615C20.8862 -0.0293038 20.0797 -0.0293038 19.5469 0.433615L16.6038 2.9861C16.5446 3.03738 16.4551 3.03738 16.3959 2.9861L13.4525 0.433615C12.9197 -0.0292282 12.1132 -0.0292282 11.5804 0.433615L8.63428 2.98844C8.57531 3.03957 8.48623 3.0398 8.42695 2.98897L6.26 1.13019C5.68511 0.63444 4.8046 0.684438 4.29336 1.24191C4.0641 1.4919 3.93867 1.81549 3.94133 2.14997V30.023C3.93618 30.7701 4.55662 31.3799 5.32715 31.3849C5.67231 31.3871 6.00602 31.2652 6.2639 31.0427L8.4289 29.1839C8.48779 29.1331 8.57664 29.1334 8.63522 29.1845L11.581 31.7393C12.1137 32.2022 12.9203 32.2022 13.4531 31.7393L16.3965 29.1868C16.4557 29.1355 16.5451 29.1355 16.6044 29.1868L19.5478 31.7392C20.0806 32.2019 20.8871 32.2019 21.4199 31.7392L24.3661 29.1844C24.4251 29.1333 24.5142 29.1331 24.5735 29.1839L26.7404 31.0427C27.3156 31.5382 28.196 31.4878 28.707 30.9301C28.9359 30.6803 29.0611 30.3571 29.0586 30.023V2.14997C29.066 1.61451 28.7437 1.12625 28.2391 0.90856ZM9.10574 10.9429H16.8739C17.2185 10.9429 17.4979 11.2139 17.4979 11.548C17.4979 11.8822 17.2185 12.1532 16.8739 12.1532H9.10574C8.76112 12.1532 8.48171 11.8822 8.48171 11.548C8.48171 11.2139 8.76112 10.9429 9.10574 10.9429ZM23.8942 21.23H9.10574C8.76112 21.23 8.48171 20.9591 8.48171 20.6249C8.48171 20.2907 8.76112 20.0198 9.10574 20.0198H23.8942C24.2388 20.0198 24.5183 20.2907 24.5183 20.6249C24.5183 20.9591 24.2388 21.23 23.8942 21.23ZM23.8942 16.6916H9.10574C8.76112 16.6916 8.48171 16.4206 8.48171 16.0865C8.48171 15.7523 8.76112 15.4813 9.10574 15.4813H23.8942C24.2388 15.4813 24.5183 15.7523 24.5183 16.0865C24.5183 16.4206 24.2388 16.6916 23.8942 16.6916Z" fill="#DD0060"/>
</g>
<defs>
<clipPath id="clip0_1_256">
<rect width="33" height="32" fill="white" transform="translate(0 0.0864258)"/>
</clipPath>
</defs>
</svg>
