<svg width="33" height="33" viewBox="0 0 33 33" fill="none" xmlns="http://www.w3.org/2000/svg">
<g clip-path="url(#clip0_1_260)">
<path d="M32.8709 17.6869L30.3892 3.96451C30.1701 2.75301 29.0896 1.90063 27.8701 1.90063C27.7225 1.90063 6.13765 5.5982 6.13765 5.5982C4.7447 5.8377 3.81458 7.13282 4.06022 8.49095L4.29945 9.81388H23.7798C26.2512 9.81388 28.2617 11.7742 28.2617 14.1838V15.9348V20.1829V21.0149L30.7935 20.5796C32.1864 20.3402 33.1166 19.0451 32.8709 17.6869V17.6869Z" fill="#DD0060"/>
<path d="M26.3409 22.0558H0.0897217V27.7752C0.0897217 29.1543 1.23639 30.2723 2.65081 30.2723H23.7798C25.1942 30.2723 26.3409 29.1543 26.3409 27.7752V22.0558ZM7.71453 28.0225H3.35748C2.82709 28.0225 2.39709 27.6033 2.39709 27.0862C2.39709 26.569 2.82709 26.1498 3.35748 26.1498H7.71453C8.24491 26.1498 8.67491 26.569 8.67491 27.0862C8.67491 27.6033 8.24498 28.0225 7.71453 28.0225V28.0225Z" fill="#DD0060"/>
<path d="M0.0928955 14.0621H26.3377C26.2726 12.7395 25.1523 11.6868 23.7797 11.6868H2.65084C1.27828 11.6868 0.158024 12.7395 0.0928955 14.0621V14.0621Z" fill="#DD0060"/>
<path d="M0.0897217 15.9348H26.3409V20.1829H0.0897217V15.9348Z" fill="#DD0060"/>
</g>
<defs>
<clipPath id="clip0_1_260">
<rect width="32.8205" height="32" fill="white" transform="translate(0.0897217 0.0864258)"/>
</clipPath>
</defs>
</svg>
