<svg width="30" height="31" viewBox="0 0 30 31" fill="none" xmlns="http://www.w3.org/2000/svg">
<g clip-path="url(#clip0_2_18)">
<path d="M18.4946 1.86934H17.119C17.0389 1.86934 16.9666 1.8215 16.9352 1.7478C16.6169 1.00142 15.8755 0.477051 15.0138 0.477051C14.152 0.477051 13.4107 1.00165 13.0912 1.74803C13.0596 1.82173 12.9875 1.86934 12.9074 1.86934H11.5329C11.1487 1.86934 10.8369 2.18108 10.8369 2.5656V5.35017C10.8369 5.7347 11.1487 6.0462 11.5329 6.0462H18.4946C18.8791 6.0462 19.1906 5.7347 19.1906 5.35017V2.5656C19.1906 2.18108 18.8791 1.86934 18.4946 1.86934Z" fill="#37A58C"/>
<path d="M23.4803 3.26141H20.9484V4.98238C20.9484 6.54083 19.6852 7.80426 18.1265 7.80426H11.9009C10.3425 7.80426 9.07906 6.54083 9.07906 4.98238V3.26141H6.55014C4.5504 3.26141 2.92969 4.88281 2.92969 6.88255V26.8566C2.92969 28.8557 4.5504 30.4771 6.55014 30.4771H23.4803C25.48 30.4771 27.1008 28.8557 27.1008 26.8566V6.88255C27.1008 4.88258 25.48 3.26141 23.4803 3.26141ZM6.82686 12.3119C7.17018 11.9685 7.72682 11.9685 8.07014 12.3119L8.34023 12.5826L9.81903 11.1036C10.1619 10.7603 10.7185 10.7603 11.0619 11.1036C11.4052 11.4469 11.4052 12.0036 11.0619 12.3469L8.9994 14.4096C8.81767 14.5911 8.57872 14.6819 8.34023 14.6819C8.10173 14.6819 7.86324 14.5911 7.68173 14.4096L6.82686 13.5547C6.48331 13.2111 6.48331 12.6545 6.82686 12.3119ZM6.80695 18.5532C7.15027 18.2099 7.70691 18.2099 8.05023 18.5532L8.32031 18.824L9.79912 17.345C10.1427 17.0023 10.6986 17.0023 11.0419 17.345C11.3853 17.6883 11.3853 18.2449 11.0419 18.5885L8.97949 20.6509C8.8044 20.8267 8.57048 20.924 8.32146 20.924H8.32031C8.07198 20.924 7.8376 20.8267 7.66182 20.6509L6.80695 19.7961C6.46408 19.4532 6.46408 18.8966 6.80695 18.5532ZM11.1726 24.7676L9.11018 26.8307C8.92845 27.0125 8.6895 27.1033 8.451 27.1033C8.21251 27.1033 7.97401 27.0125 7.79228 26.8307L6.93741 25.9759C6.59409 25.6326 6.59409 25.0764 6.93741 24.733C7.28096 24.3897 7.83691 24.3897 8.18024 24.733L8.451 25.0038L9.92981 23.525C10.2727 23.1815 10.8293 23.1815 11.1726 23.525C11.516 23.8683 11.516 24.425 11.1726 24.7676ZM13.1923 11.8852H22.4913C22.977 11.8852 23.3702 12.2789 23.3702 12.7641C23.3702 13.2498 22.977 13.643 22.4913 13.643H13.1923C12.7066 13.643 12.3134 13.2498 12.3134 12.7641C12.3134 12.2789 12.7066 11.8852 13.1923 11.8852ZM13.1724 18.1266H22.4714C22.9571 18.1266 23.3503 18.5205 23.3503 19.0055C23.3503 19.4914 22.9571 19.8844 22.4714 19.8844H13.1724C12.6874 19.8844 12.2935 19.4914 12.2935 19.0055C12.2935 18.5203 12.6874 18.1266 13.1724 18.1266ZM22.6019 26.0642H13.3031C12.8174 26.0642 12.4242 25.6712 12.4242 25.1853C12.4242 24.7003 12.8174 24.3064 13.3031 24.3064H22.6019C23.0871 24.3064 23.4808 24.7003 23.4808 25.1853C23.4808 25.6712 23.0871 26.0642 22.6019 26.0642Z" fill="#37A58C"/>
</g>
<defs>
<clipPath id="clip0_2_18">
<rect width="30" height="30" fill="white" transform="translate(0 0.477051)"/>
</clipPath>
</defs>
</svg>
