<svg width="33" height="33" viewBox="0 0 33 33" fill="none" xmlns="http://www.w3.org/2000/svg">
<g clip-path="url(#clip0_1_282)">
<path d="M22.9238 5.24768H4.5483C3.8812 5.24768 3.33862 5.79026 3.33862 6.45736V30.8767C3.33862 31.5438 3.8812 32.0864 4.5483 32.0864H22.9238C23.5902 32.0864 24.1328 31.5438 24.1328 30.8767V6.45736C24.1328 5.79026 23.5902 5.24768 22.9238 5.24768ZM18.8225 22.2799H9.01604C8.44572 22.2799 7.98378 21.818 7.98378 21.2477C7.98378 20.6774 8.44572 20.2154 9.01604 20.2154H18.8225C19.3928 20.2154 19.8547 20.6774 19.8547 21.2477C19.8547 21.818 19.3928 22.2799 18.8225 22.2799ZM18.8225 18.1509H9.01604C8.44572 18.1509 7.98378 17.689 7.98378 17.1186C7.98378 16.5483 8.44572 16.0864 9.01604 16.0864H18.8225C19.3928 16.0864 19.8547 16.5483 19.8547 17.1186C19.8547 17.689 19.3928 18.1509 18.8225 18.1509ZM18.8225 14.0219H9.01604C8.44572 14.0219 7.98378 13.5599 7.98378 12.9896C7.98378 12.4193 8.44572 11.9574 9.01604 11.9574H18.8225C19.3928 11.9574 19.8547 12.4193 19.8547 12.9896C19.8547 13.5599 19.3928 14.0219 18.8225 14.0219Z" fill="#DD0060"/>
<path d="M29.6612 3.1832V25.8929C29.6612 27.4516 28.4069 28.9897 26.1973 28.9897V6.45739C26.1973 4.65159 24.7289 3.1832 22.9238 3.1832H6.80249C6.80249 1.47546 8.2741 0.0864258 10.0825 0.0864258H26.3812C28.1896 0.0864258 29.6612 1.47546 29.6612 3.1832Z" fill="#DD0060"/>
</g>
<defs>
<clipPath id="clip0_1_282">
<rect width="32" height="32" fill="white" transform="translate(0.5 0.0864258)"/>
</clipPath>
</defs>
</svg>
