<svg width="33" height="33" viewBox="0 0 33 33" fill="none" xmlns="http://www.w3.org/2000/svg">
<g clip-path="url(#clip0_1_272)">
<path d="M30.3722 16.5009C30.2435 16.2375 30.2435 15.9353 30.3722 15.672L31.5657 13.2304C32.2302 11.871 31.7037 10.2507 30.3671 9.54149L27.9665 8.26775C27.7075 8.13037 27.5299 7.88588 27.4792 7.59719L27.0097 4.92039C26.7483 3.43003 25.3697 2.42853 23.8718 2.64047L21.181 3.02109C20.8905 3.06209 20.6033 2.96872 20.3927 2.76491L18.4395 0.875416C17.3519 -0.176703 15.6482 -0.176765 14.5607 0.875416L12.6075 2.76509C12.3967 2.96897 12.1095 3.06215 11.8191 3.02128L9.12835 2.64066C7.62992 2.4286 6.25181 3.43021 5.99037 4.92058L5.52087 7.59725C5.47018 7.886 5.29262 8.13044 5.03369 8.26787L2.63308 9.54162C1.29646 10.2507 0.769964 11.8712 1.43446 13.2306L2.62789 15.6721C2.75664 15.9355 2.75664 16.2376 2.62789 16.501L1.4344 18.9425C0.769901 20.3019 1.2964 21.9222 2.63301 22.6314L5.03363 23.9052C5.29262 24.0425 5.47018 24.287 5.52087 24.5757L5.99037 27.2525C6.22837 28.6093 7.39174 29.5608 8.72879 29.5606C8.86048 29.5606 8.9941 29.5514 9.12841 29.5324L11.8192 29.1518C12.1094 29.1106 12.3968 29.2041 12.6075 29.4079L14.5607 31.2974C15.1046 31.8236 15.8022 32.0866 16.5001 32.0865C17.1977 32.0864 17.8958 31.8234 18.4394 31.2974L20.3927 29.4079C20.6034 29.2041 20.8907 29.111 21.181 29.1518L23.8718 29.5324C25.3704 29.7444 26.7483 28.7428 27.0097 27.2525L27.4793 24.5758C27.53 24.287 27.7075 24.0426 27.9665 23.9052L30.3671 22.6314C31.7037 21.9223 32.2302 20.3019 31.5657 18.9424L30.3722 16.5009ZM12.8088 7.78113C14.6745 7.78113 16.1924 9.29906 16.1924 11.1648C16.1924 13.0305 14.6745 14.5485 12.8088 14.5485C10.943 14.5485 9.4251 13.0305 9.4251 11.1648C9.4251 9.29906 10.943 7.78113 12.8088 7.78113ZM11.0623 22.8292C10.8821 23.0094 10.6459 23.0995 10.4098 23.0995C10.1737 23.0995 9.93741 23.0094 9.75728 22.8292C9.39691 22.4688 9.39691 21.8845 9.75728 21.5241L21.9378 9.34362C22.2981 8.98324 22.8825 8.98324 23.2428 9.34362C23.6032 9.70399 23.6032 10.2883 23.2428 10.6487L11.0623 22.8292ZM20.1912 24.3918C18.3255 24.3918 16.8076 22.8739 16.8076 21.0081C16.8076 19.1424 18.3255 17.6244 20.1912 17.6244C22.057 17.6244 23.5749 19.1424 23.5749 21.0081C23.5749 22.8739 22.057 24.3918 20.1912 24.3918Z" fill="#DD0060"/>
<path d="M20.1913 19.4701C19.3432 19.4701 18.6532 20.16 18.6532 21.0081C18.6532 21.8561 19.3431 22.5461 20.1913 22.5461C21.0393 22.5461 21.7292 21.8561 21.7292 21.0081C21.7292 20.16 21.0393 19.4701 20.1913 19.4701Z" fill="#DD0060"/>
<path d="M12.8087 9.62671C11.9607 9.62671 11.2708 10.3166 11.2708 11.1647C11.2708 12.0128 11.9607 12.7028 12.8087 12.7028C13.6568 12.7028 14.3468 12.0128 14.3468 11.1647C14.3467 10.3167 13.6568 9.62671 12.8087 9.62671Z" fill="#DD0060"/>
</g>
<defs>
<clipPath id="clip0_1_272">
<rect width="32" height="32" fill="white" transform="translate(0.5 0.0864258)"/>
</clipPath>
</defs>
</svg>
