<svg version="1.1" xmlns="http://www.w3.org/2000/svg" xmlns:xlink="http://www.w3.org/1999/xlink">
<path d="M15.322 5.827c-.26-.26-.683-.26-.943.003l-8.014 8.058c-1.04 1.04-2.728 1.04-3.77-.001a2.67 2.67 0 0 1 0-3.771l8.25-8.295c.65-.65 1.704-.65 2.355.001s.65 1.706 0 2.357l-6.835 6.835c-.262.26-.683.26-.942 0s-.26-.682 0-.942l3.3-3.3c.26-.26.26-.683 0-.943s-.683-.26-.943 0l-3.3 3.3a2 2 0 0 0 2.828 2.828l6.835-6.836A3 3 0 0 0 9.903.878L1.65 9.173a4 4 0 0 0 5.658 5.656l8.015-8.06c.26-.26.258-.683-.002-.943z" fill="#dd0060"/>
</svg>

