<svg viewBox="0 0 42 42" xmlns="http://www.w3.org/2000/svg">
<path d="M14.5276 30.9033L12.892 28.2495L9.43836 28.87L13.9804 20.8145H5.12354V41.9998H20.2149V20.8145L14.5276 30.9033Z"/>
<path d="M39.3671 10.7048H29.3456C29.9316 10.4028 30.4549 10.0874 30.9184 9.75246C32.7005 8.47565 33.6469 6.85797 33.6439 5.25224C33.6439 3.93507 33.0205 2.04827 32.1145 1.26185C31.207 0.466467 30.0034 0 28.7191 0C27.3466 0 26.0713 0.470953 24.9784 1.20355C23.3353 2.30393 22.0495 4.6871 21.1331 6.50513C21.0867 6.59633 21.0404 6.68454 20.9955 6.77275C20.6606 6.07155 20.2689 4.66766 19.8249 4.02777C19.0474 2.91841 18.113 1.93763 17.0156 1.20355C15.9257 0.470953 14.6518 0 13.2809 0C11.9143 0.00448526 10.663 0.577104 9.72703 1.4607C8.79559 2.33533 8.14373 4.30436 8.13775 5.71123C8.13177 6.53204 8.37098 7.39171 8.86586 8.17364C9.48781 9.15293 10.4731 10.0066 11.8336 10.7048H2.60742L2.62835 19.1296H19.9534V10.7048H22.0645V19.1296H39.3926L39.3671 10.7048ZM12.4316 8.07048C11.7364 7.63093 11.3088 7.18988 11.0577 6.79368C10.814 6.40047 10.7287 5.70974 10.7287 5.37035C10.7228 4.80372 11.0053 3.80948 11.5077 3.34302C11.9981 2.87505 12.6649 2.5865 13.2629 2.5865H13.2809C14.0508 2.59248 14.8133 2.84964 15.5818 3.35647C16.7255 4.11149 17.8035 6.16425 18.5525 7.6683C18.9442 8.43379 19.2433 9.23366 19.4451 10.0156C15.975 9.65677 13.7324 8.89129 12.4316 8.07048ZM24.2922 6.239C24.9171 5.34344 25.6542 3.8663 26.4182 3.35647C27.1777 2.84964 27.9492 2.59248 28.7191 2.5865H28.7266C29.368 2.5865 29.9855 2.83768 30.4056 3.20995C30.8272 3.58821 31.053 4.28044 31.053 4.76783C31.044 5.34344 30.7465 6.66809 29.4024 7.65036C28.1271 8.58031 25.9128 9.53268 22.5085 10.1995C22.83 8.84942 23.4594 7.42012 24.2922 6.239Z"/>
<path d="M32.5796 28.8356L29.1275 28.2495L27.4978 30.9347L21.8838 20.9505V41.9998H36.899V20.8145H28.0421L32.5796 28.8356Z"/>
</svg>


