<svg width="31" height="31" viewBox="0 0 31 31" fill="none" xmlns="http://www.w3.org/2000/svg">
<path d="M16.1175 9.88977C13.045 9.88977 10.5453 12.3886 10.5453 15.4602C10.5453 18.5317 13.045 21.0305 16.1175 21.0305C19.1881 21.0305 21.6861 18.5317 21.6861 15.4602C21.6861 12.3886 19.1881 9.88977 16.1175 9.88977ZM20.0309 14.1003L16.045 18.3844C15.8721 18.5704 15.637 18.6646 15.4014 18.6646C15.1903 18.6646 14.9786 18.5891 14.8103 18.436L12.2528 16.1104C11.8937 15.7838 11.8674 15.2279 12.1939 14.8688C12.5205 14.5097 13.0764 14.4833 13.4354 14.8099L15.35 16.5509L18.7439 12.903C19.0746 12.5476 19.6307 12.5275 19.9861 12.8582C20.3414 13.1888 20.3615 13.7449 20.0309 14.1003ZM6.35538 12.8534C4.47593 12.9419 3.84721 10.8334 3.84721 10.8334C3.78768 16.2155 5.36778 25.054 15.4913 29.1785C16.1158 29.4376 16.7383 29.1785 16.7383 29.1785C30.4811 23.5801 28.4828 9.30125 28.0068 6.76837C27.9265 5.50678 26.9003 5.6276 26.9003 5.6276C20.7977 6.516 17.0689 2.19659 16.9147 2.01296C16.7068 1.76352 16.3863 1.63397 16.0635 1.66491C15.7397 1.69397 15.4487 1.8844 15.2887 2.16671C15.2261 2.2768 14.2035 4.00884 11.4008 5.00505C11.9562 5.45452 12.2909 6.13579 12.2899 6.87618C12.2912 7.84907 11.7132 8.72042 10.8159 9.09694C9.3395 9.71651 8.75186 10.8614 8.61118 11.1846C8.19481 12.414 7.14399 12.8534 6.35538 12.8534ZM16.1175 22.7884C12.0758 22.7884 8.78749 19.501 8.78749 15.4602C8.78749 11.4194 12.0757 8.13196 16.1175 8.13196C20.1573 8.13196 23.444 11.4194 23.444 15.4602C23.444 19.501 20.1573 22.7884 16.1175 22.7884ZM6.32632 11.2494C5.70135 11.2775 5.53706 10.6265 5.53706 10.6265C5.3802 10.2411 4.57454 8.51106 2.44835 7.61891C2.14038 7.48965 1.95569 7.19047 1.95704 6.87618C1.95569 6.56176 2.14038 6.2627 2.44835 6.13344C4.56903 5.24352 5.37305 3.52895 5.53647 3.12712C5.72456 2.47749 6.32204 2.50145 6.32204 2.50145C6.96616 2.49085 7.1069 3.1253 7.1069 3.1253C7.26868 3.52374 8.07188 5.24217 10.1957 6.13339C10.5036 6.26264 10.6883 6.56171 10.687 6.87612C10.6883 7.19047 10.5036 7.4896 10.1957 7.61885C8.07259 8.50977 7.26909 10.2276 7.10696 10.6268C6.90235 11.302 6.32632 11.2494 6.32632 11.2494Z" fill="#37A58C"/>
</svg>
