<svg width="34" height="32" viewBox="0 0 34 32" fill="none" xmlns="http://www.w3.org/2000/svg">
<g clip-path="url(#clip0_45_599)">
<path d="M13.7609 22.6929C13.7609 24.2437 15.0774 25.5054 16.6957 25.5054C18.3139 25.5054 19.6304 24.2437 19.6304 22.6929C19.6304 21.1421 18.3139 19.8804 16.6957 19.8804C15.0774 19.8804 13.7609 21.142 13.7609 22.6929ZM15.7174 22.6929C15.7174 22.1759 16.1562 21.7554 16.6957 21.7554C17.2351 21.7554 17.6739 22.1759 17.6739 22.6929C17.6739 23.2098 17.2351 23.6304 16.6957 23.6304C16.1562 23.6304 15.7174 23.2098 15.7174 22.6929Z" fill="#37A58C"/>
<path d="M26.028 14.7249C27.6463 14.7249 28.9628 13.4632 28.9628 11.9124C28.9628 10.3615 27.6463 9.09985 26.028 9.09985C24.4098 9.09985 23.0932 10.3615 23.0932 11.9124C23.0932 13.4632 24.4098 14.7249 26.028 14.7249ZM26.028 12.8499C25.4886 12.8499 25.0498 12.4293 25.0498 11.9124C25.0498 11.3954 25.4886 10.9749 26.028 10.9749C26.5674 10.9749 27.0063 11.3954 27.0063 11.9124C27.0063 12.4293 26.5675 12.8499 26.028 12.8499Z" fill="#37A58C"/>
<path d="M21.6211 19.9141C21.6211 21.4649 22.9377 22.7266 24.5559 22.7266C26.1742 22.7266 27.4907 21.4649 27.4907 19.9141C27.4907 18.3633 26.1742 17.1016 24.5559 17.1016C22.9377 17.1016 21.6211 18.3632 21.6211 19.9141ZM23.5777 19.9141C23.5777 19.3971 24.0165 18.9766 24.5559 18.9766C25.0953 18.9766 25.5342 19.3971 25.5342 19.9141C25.5342 20.431 25.0953 20.8516 24.5559 20.8516C24.0165 20.8516 23.5777 20.431 23.5777 19.9141Z" fill="#37A58C"/>
<path d="M0.523159 31.7932C1.47566 32.4324 2.64207 31.4348 3.26868 30.8989C4.0357 30.2429 5.00744 29.274 6.1567 28.0191C7.32481 26.7437 8.61188 25.239 9.85896 23.6997C9.95138 24.4288 10.1733 25.1433 10.5247 25.8149C11.4106 27.5078 13.0353 28.6977 14.9822 29.0795C15.1196 29.1065 15.2603 29.1321 15.3999 29.1557C16.2988 29.3076 17.1996 29.3827 18.0938 29.3827C21.2097 29.3827 24.2462 28.4712 26.8519 26.7226C30.2053 24.4724 32.4436 21.1053 33.1545 17.2418C33.8653 13.3782 32.9637 9.48059 30.6156 6.2669C28.2675 3.05322 24.7541 0.908217 20.7225 0.226904C16.6913 -0.454159 12.6239 0.409716 9.27051 2.66003C5.91709 4.91022 3.67883 8.27728 2.9679 12.1408L2.93829 12.3032C2.78066 13.1666 3.08418 14.0348 3.75025 14.6253C4.44631 15.2425 5.42203 15.4733 6.36025 15.243C6.96383 15.0948 7.60681 15.1032 8.21972 15.2668C8.44127 15.3261 8.65375 15.4069 8.85729 15.5064C8.59088 15.8558 8.31605 16.2242 8.03203 16.6128C6.06514 19.3048 3.86764 22.683 2.29707 25.4292C1.45968 26.8934 0.841941 28.0998 0.461006 29.0149C0.149854 29.7625 -0.429341 31.154 0.523159 31.7932ZM12.4687 20.3433C12.5946 20.1738 12.7186 20.0057 12.8401 19.8392C14.504 17.562 15.6059 15.7932 16.1881 14.4619C17.1593 14.3297 18.0325 13.8223 18.6114 13.0301C21.1967 9.49178 17.8557 4.69278 17.7122 4.49028C17.4983 4.18822 17.1209 4.03265 16.745 4.09159C16.3691 4.15053 16.0631 4.41309 15.9606 4.76465C15.8265 5.22278 15.3629 6.55378 14.837 7.19678C14.577 7.51478 14.3876 7.63441 14.1254 7.79997C13.7529 8.03516 13.2893 8.32797 12.7349 9.08684C12.1561 9.87903 11.9572 10.839 12.1597 11.7587C11.5397 12.3078 10.8408 13.051 10.0532 13.999C9.64159 13.7649 9.20053 13.5825 8.74525 13.4609C7.80253 13.209 6.80979 13.1973 5.87457 13.4269C5.58285 13.4985 5.28527 13.4322 5.07905 13.2492C4.97392 13.156 4.80631 12.9511 4.86566 12.6263L4.89501 12.4652C5.5149 9.09622 7.46744 6.15903 10.3928 4.19603C13.3181 2.23303 16.8656 1.47922 20.3829 2.07359C27.6428 3.30034 32.5079 9.95878 31.2277 16.9163C29.9476 23.8738 22.9992 28.5364 15.7395 27.3092C15.6174 27.2885 15.4947 27.2662 15.3746 27.2426C13.9991 26.9729 12.8978 26.1673 12.2736 24.9744C11.6032 23.6933 11.5981 22.1848 12.2595 20.8358C12.3364 20.6792 12.4063 20.5139 12.4687 20.3433ZM14.3375 10.1622C14.6777 9.69659 14.8976 9.55772 15.2019 9.36553C15.5219 9.16347 15.9199 8.91203 16.3769 8.35334C16.6244 8.05065 16.8461 7.68359 17.0379 7.30934C17.6069 8.66615 18.0415 10.541 17.0087 11.9546C16.7292 12.3372 16.2983 12.5729 15.8234 12.6141L14.0963 11.4552C13.9742 11.0134 14.058 10.5448 14.3375 10.1622ZM2.65407 28.8768C3.0174 28.121 3.5694 27.0772 4.4077 25.649C5.91644 23.079 7.87042 20.103 9.63475 17.6883C11.1405 15.6275 12.39 14.1394 13.3602 13.2502L14.3151 13.891C13.7749 15.0689 12.7431 16.7031 11.2375 18.7638C9.47314 21.1785 7.22333 23.956 5.21927 26.1937C4.10562 27.437 3.27096 28.2911 2.65407 28.8768Z" fill="#37A58C"/>
</g>
<defs>
<clipPath id="clip0_45_599">
<rect width="33.3913" height="32" fill="white"/>
</clipPath>
</defs>
</svg>
