<svg width="19" height="19" viewBox="0 0 19 19" fill="none" xmlns="http://www.w3.org/2000/svg">
<g clip-path="url(#clip0_45_238)">
<path d="M18.4818 13.9441L15.8303 11.2926C14.8833 10.3456 13.2735 10.7244 12.8947 11.9555C12.6106 12.8078 11.6636 13.2812 10.8114 13.0918C8.91742 12.6183 6.36061 10.1562 5.88713 8.16759C5.60304 7.31528 6.17122 6.36831 7.02349 6.08426C8.25454 5.70547 8.63333 4.09563 7.68636 3.14866L5.03486 0.497158C4.27728 -0.165719 3.14092 -0.165719 2.47804 0.497158L0.678808 2.29639C-1.12043 4.19033 0.868201 9.20925 5.31895 13.66C9.76969 18.1107 14.7886 20.1941 16.6825 18.3001L18.4818 16.5009C19.1447 15.7433 19.1447 14.607 18.4818 13.9441Z" fill="#37A58C"/>
</g>
<defs>
<clipPath id="clip0_45_238">
<rect width="19" height="19" fill="white" transform="translate(-0.000976562)"/>
</clipPath>
</defs>
</svg>
