<svg width="41" height="41" viewBox="0 0 41 41" fill="none" xmlns="http://www.w3.org/2000/svg">
<g clip-path="url(#clip0_1_249)" filter="url(#filter0_d_1_249)">
<path d="M26.1875 11.4614C20.5012 11.4614 15.875 16.0876 15.875 21.7739C15.875 27.4602 20.5012 32.0864 26.1875 32.0864C31.8738 32.0864 36.5 27.4602 36.5 21.7739C36.5 16.0876 31.8738 11.4614 26.1875 11.4614ZM26.1875 20.8364C27.7384 20.8364 29 22.0981 29 23.6489C29 24.8696 28.2139 25.9004 27.125 26.2887V28.3364H25.25V26.2887C24.1611 25.9004 23.375 24.8696 23.375 23.6489H25.25C25.25 24.1662 25.6702 24.5864 26.1875 24.5864C26.7048 24.5864 27.125 24.1662 27.125 23.6489C27.125 23.1317 26.7048 22.7114 26.1875 22.7114C24.6366 22.7114 23.375 21.4498 23.375 19.8989C23.375 18.6783 24.1611 17.6474 25.25 17.2591V15.2114H27.125V17.2591C28.2139 17.6474 29 18.6783 29 19.8989H27.125C27.125 19.3817 26.7048 18.9614 26.1875 18.9614C25.6702 18.9614 25.25 19.3817 25.25 19.8989C25.25 20.4162 25.6702 20.8364 26.1875 20.8364Z" fill="#DD0060"/>
<path d="M14.9375 11.4614C20.72 11.4614 25.25 8.99043 25.25 5.83643C25.25 2.68243 20.72 0.0864258 14.9375 0.0864258C9.155 0.0864258 4.5 2.68243 4.5 5.83643C4.5 8.99043 9.155 11.4614 14.9375 11.4614Z" fill="#DD0060"/>
<path d="M4.5 21.1838V22.7114C4.5 25.8654 9.155 28.3364 14.9375 28.3364C15.2655 28.3364 15.5833 28.3062 15.9062 28.2904C15.1871 27.1597 14.6508 25.9051 14.335 24.5638C10.1534 24.4484 6.52262 23.1635 4.5 21.1838Z" fill="#DD0060"/>
<path d="M14.0451 22.6637C14.0236 22.3688 14 22.0742 14 21.7739C14 20.7966 14.1281 19.8507 14.3464 18.9393C10.1597 18.8259 6.52444 17.5403 4.5 15.5588V17.0864C4.5 20.0731 8.70387 22.4203 14.0451 22.6637Z" fill="#DD0060"/>
<path d="M14.9375 17.0864C14.9385 17.0864 14.9393 17.0863 14.9404 17.0863C15.5587 15.6085 16.4575 14.2764 17.5737 13.1603C16.727 13.2673 15.852 13.3364 14.9375 13.3364C10.4864 13.3364 6.62037 12.0091 4.5 9.93384V11.4614C4.5 14.6154 9.155 17.0864 14.9375 17.0864Z" fill="#DD0060"/>
</g>
<defs>
<filter id="filter0_d_1_249" x="0.5" y="0.0864258" width="40" height="40" filterUnits="userSpaceOnUse" color-interpolation-filters="sRGB">
<feFlood flood-opacity="0" result="BackgroundImageFix"/>
<feColorMatrix in="SourceAlpha" type="matrix" values="0 0 0 0 0 0 0 0 0 0 0 0 0 0 0 0 0 0 127 0" result="hardAlpha"/>
<feOffset dy="4"/>
<feGaussianBlur stdDeviation="2"/>
<feComposite in2="hardAlpha" operator="out"/>
<feColorMatrix type="matrix" values="0 0 0 0 0 0 0 0 0 0 0 0 0 0 0 0 0 0 0.25 0"/>
<feBlend mode="normal" in2="BackgroundImageFix" result="effect1_dropShadow_1_249"/>
<feBlend mode="normal" in="SourceGraphic" in2="effect1_dropShadow_1_249" result="shape"/>
</filter>
<clipPath id="clip0_1_249">
<rect width="32" height="32" fill="white" transform="translate(4.5 0.0864258)"/>
</clipPath>
</defs>
</svg>
