<svg width="33" height="33" viewBox="0 0 33 33" fill="none" xmlns="http://www.w3.org/2000/svg">
<g clip-path="url(#clip0_1_265)">
<path d="M31.1667 10.7531C30.4307 10.7531 29.8334 10.1571 29.8334 9.41976V4.08643C29.8334 3.35043 29.2347 2.75309 28.5 2.75309H23.1667C22.4307 2.75309 21.8334 2.15709 21.8334 1.41976C21.8334 0.682426 22.4307 0.0864258 23.1667 0.0864258H28.5C30.7054 0.0864258 32.5001 1.88109 32.5001 4.08643V9.41976C32.5001 10.1571 31.9027 10.7531 31.1667 10.7531Z" fill="#DD0060"/>
<path d="M28.5 32.0865H23.1667C22.4307 32.0865 21.8334 31.4905 21.8334 30.7531C21.8334 30.0158 22.4307 29.4198 23.1667 29.4198H28.5C29.2347 29.4198 29.8334 28.8225 29.8334 28.0865V22.7531C29.8334 22.0158 30.4307 21.4198 31.1667 21.4198C31.9027 21.4198 32.5001 22.0158 32.5001 22.7531V28.0865C32.5001 30.2918 30.7054 32.0865 28.5 32.0865Z" fill="#DD0060"/>
<path d="M9.83334 32.0865H4.5C2.29467 32.0865 0.5 30.2918 0.5 28.0865V22.7531C0.5 22.0158 1.09733 21.4198 1.83333 21.4198C2.56933 21.4198 3.16667 22.0158 3.16667 22.7531V28.0865C3.16667 28.8225 3.76533 29.4198 4.5 29.4198H9.83334C10.5693 29.4198 11.1667 30.0158 11.1667 30.7531C11.1667 31.4905 10.5693 32.0865 9.83334 32.0865Z" fill="#DD0060"/>
<path d="M1.83333 10.7531C1.09733 10.7531 0.5 10.1571 0.5 9.41976V4.08643C0.5 1.88109 2.29467 0.0864258 4.5 0.0864258H9.83333C10.5693 0.0864258 11.1667 0.682426 11.1667 1.41976C11.1667 2.15709 10.5693 2.75309 9.83333 2.75309H4.5C3.76533 2.75309 3.16667 3.35043 3.16667 4.08643V9.41976C3.16667 10.1571 2.56933 10.7531 1.83333 10.7531Z" fill="#DD0060"/>
<path d="M24.5 14.7531C23.764 14.7531 23.1666 14.1571 23.1666 13.4197V9.41972H9.83329V13.4197C9.83329 14.1571 9.23596 14.7531 8.49996 14.7531C7.76396 14.7531 7.16663 14.1571 7.16663 13.4197V9.41972C7.16663 7.94905 8.36263 6.75305 9.83329 6.75305H23.1666C24.6373 6.75305 25.8333 7.94905 25.8333 9.41972V13.4197C25.8333 14.1571 25.236 14.7531 24.5 14.7531Z" fill="#DD0060"/>
<path d="M28.5 18.7531C28.5 19.4905 27.9027 20.0865 27.1667 20.0865H25.8333V22.7531C25.8333 24.2238 24.6373 25.4198 23.1667 25.4198H9.83333C8.36266 25.4198 7.16667 24.2238 7.16667 22.7531V20.0865H5.83333C5.09733 20.0865 4.5 19.4905 4.5 18.7531C4.5 18.0158 5.09733 17.4198 5.83333 17.4198H27.1667C27.9027 17.4198 28.5 18.0158 28.5 18.7531Z" fill="#DD0060"/>
</g>
<defs>
<clipPath id="clip0_1_265">
<rect width="32" height="32" fill="white" transform="translate(0.5 0.0864258)"/>
</clipPath>
</defs>
</svg>
