<svg width="33" height="32" viewBox="0 0 33 32" fill="none" xmlns="http://www.w3.org/2000/svg">
<path d="M28.6782 12H28.5474C28.3557 11.9983 28.1689 11.9402 28.0115 11.8332C27.854 11.7262 27.7331 11.5752 27.6646 11.4C27.5924 11.2308 27.5733 11.0444 27.6097 10.8646C27.6461 10.6847 27.7363 10.5195 27.8689 10.39L27.9619 10.299C28.5224 9.74834 28.8371 9.00276 28.8371 8.2255C28.8371 7.44824 28.5224 6.70265 27.9619 6.152L26.4181 4.642C25.8559 4.09302 25.0942 3.78471 24.3 3.78471C23.5059 3.78471 22.7441 4.09302 22.1819 4.642L22.089 4.733C21.952 4.86211 21.7795 4.94928 21.5926 4.98381C21.4057 5.01833 21.2126 4.99871 21.0369 4.92736C20.8613 4.856 20.7108 4.73601 20.6038 4.58212C20.4968 4.42822 20.4381 4.2471 20.4348 4.061V3.932C20.434 3.15463 20.1181 2.40932 19.5564 1.85964C18.9948 1.30996 18.2333 1.00079 17.439 1H15.2566C14.4623 1.00079 13.7008 1.30996 13.1392 1.85964C12.5776 2.40932 12.2617 3.15463 12.2609 3.932V4.061C12.2559 4.24577 12.1963 4.42516 12.0893 4.57747C11.9823 4.72977 11.8325 4.84844 11.658 4.91913C11.4835 4.98981 11.2918 5.00947 11.1061 4.97573C10.9204 4.94198 10.7487 4.85628 10.6118 4.729L10.5239 4.638C9.96171 4.08902 9.19999 3.78071 8.40584 3.78071C7.61169 3.78071 6.84996 4.08902 6.28777 4.638L4.73882 6.148C4.17834 6.69866 3.86365 7.44424 3.86365 8.2215C3.86365 8.99876 4.17834 9.74434 4.73882 10.295L4.83179 10.386C4.9657 10.5201 5.05532 10.6905 5.08903 10.875C5.12273 11.0596 5.09897 11.2498 5.02082 11.421C4.9507 11.5915 4.83023 11.7377 4.6748 11.8408C4.51936 11.9439 4.33604 11.9994 4.14825 12H4.01747C3.2232 12.0008 2.46169 12.31 1.90006 12.8596C1.33842 13.4093 1.02254 14.1546 1.02173 14.932V17.068C1.02254 17.8454 1.33842 18.5907 1.90006 19.1404C2.46169 19.69 3.2232 19.9992 4.01747 20H4.14825C4.33995 20.0017 4.52669 20.0598 4.68415 20.1668C4.84161 20.2738 4.96249 20.4248 5.03103 20.6C5.1032 20.7692 5.1223 20.9556 5.08591 21.1354C5.04953 21.3153 4.95929 21.4805 4.82668 21.61L4.73371 21.701C4.17323 22.2517 3.85854 22.9972 3.85854 23.7745C3.85854 24.5518 4.17323 25.2973 4.73371 25.848L6.27653 27.357C6.83863 27.9065 7.60062 28.2152 8.39511 28.2152C9.18959 28.2152 9.95159 27.9065 10.5137 27.357L10.6067 27.266C10.7437 27.1351 10.9178 27.0474 11.1064 27.0144C11.2949 26.9815 11.4892 27.0046 11.6642 27.081C11.8384 27.1493 11.9878 27.267 12.0932 27.419C12.1986 27.571 12.2552 27.7503 12.2557 27.934V28.063C12.2555 28.4488 12.3329 28.8308 12.4836 29.1873C12.6343 29.5437 12.8554 29.8676 13.1341 30.1404C13.4128 30.4131 13.7437 30.6295 14.1079 30.777C14.4721 30.9245 14.8624 31.0003 15.2566 31H17.439C18.2333 30.9992 18.9948 30.69 19.5564 30.1404C20.1181 29.5907 20.434 28.8454 20.4348 28.068V27.939C20.4398 27.7542 20.4994 27.5748 20.6064 27.4225C20.7134 27.2702 20.8632 27.1516 21.0377 27.0809C21.2122 27.0102 21.4039 26.9905 21.5895 27.0243C21.7752 27.058 21.9469 27.1437 22.0839 27.271L22.1768 27.362C22.739 27.911 23.5007 28.2193 24.2949 28.2193C25.0891 28.2193 25.8508 27.911 26.413 27.362L27.9568 25.853C28.5173 25.3023 28.832 24.5568 28.832 23.7795C28.832 23.0022 28.5173 22.2567 27.9568 21.706L27.8638 21.615C27.7299 21.4809 27.6403 21.3105 27.6066 21.126C27.5729 20.9414 27.5967 20.7512 27.6748 20.58C27.7448 20.4093 27.8652 20.2629 28.0206 20.1596C28.1761 20.0563 28.3595 20.0007 28.5474 20H28.6782C29.4724 19.9992 30.2339 19.69 30.7956 19.1404C31.3572 18.5907 31.6731 17.8454 31.6739 17.068V14.932C31.6731 14.1546 31.3572 13.4093 30.7956 12.8596C30.2339 12.31 29.4724 12.0008 28.6782 12ZM29.6304 17.068C29.6302 17.3151 29.5297 17.552 29.3512 17.7267C29.1727 17.9015 28.9306 17.9997 28.6782 18H28.5474C27.9545 18.0049 27.3761 18.1806 26.8845 18.505C26.3929 18.8295 26.0097 19.2884 25.7828 19.8245C25.5558 20.3607 25.4952 20.9503 25.6083 21.52C25.7215 22.0897 26.0035 22.6141 26.4191 23.028L26.5111 23.119C26.6894 23.2941 26.7896 23.5312 26.7896 23.7785C26.7896 24.0258 26.6894 24.2629 26.5111 24.438L24.9672 25.947C24.7886 26.1218 24.5464 26.22 24.2939 26.22C24.0413 26.22 23.7991 26.1218 23.6206 25.947L23.5286 25.856C23.1055 25.4497 22.5697 25.1741 21.9878 25.0636C21.4059 24.9532 20.8037 25.0126 20.2561 25.2347C19.7085 25.4567 19.2397 25.8315 18.9081 26.3123C18.5765 26.7932 18.3968 27.3589 18.3913 27.939V28.068C18.391 28.3151 18.2906 28.552 18.1121 28.7267C17.9336 28.9015 17.6915 28.9997 17.439 29H15.2566C15.0041 28.9997 14.7621 28.9015 14.5835 28.7267C14.405 28.552 14.3046 28.3151 14.3043 28.068V27.939C14.3015 27.3577 14.1233 26.7902 13.7921 26.3077C13.4609 25.8252 12.9915 25.4492 12.4428 25.2268C11.894 25.0044 11.2904 24.9456 10.7076 25.0577C10.1249 25.1698 9.58893 25.4479 9.16703 25.857L9.07405 25.948C8.89521 26.1223 8.65311 26.2201 8.40073 26.2201C8.14835 26.2201 7.90625 26.1223 7.7274 25.948L6.18458 24.439C6.0062 24.2639 5.90602 24.0268 5.90602 23.7795C5.90602 23.5322 6.0062 23.2951 6.18458 23.12L6.27755 23.029C6.6936 22.6151 6.9759 22.0905 7.08921 21.5205C7.20253 20.9506 7.14184 20.3607 6.91474 19.8243C6.68763 19.2879 6.30416 18.8288 5.81217 18.5044C5.32018 18.18 4.74147 18.0046 4.14825 18H4.01747C3.765 17.9997 3.52294 17.9015 3.34442 17.7267C3.16589 17.552 3.06548 17.3151 3.06521 17.068V14.932C3.06548 14.6849 3.16589 14.448 3.34442 14.2733C3.52294 14.0985 3.765 14.0003 4.01747 14H4.14825C4.74117 13.9951 5.3195 13.8194 5.81112 13.495C6.30273 13.1705 6.6859 12.7116 6.91284 12.1755C7.13978 11.6393 7.20046 11.0497 7.08731 10.48C6.97415 9.91034 6.69218 9.38588 6.27653 8.972L6.18458 8.881C6.00626 8.70609 5.90611 8.46909 5.90611 8.222C5.90611 7.97491 6.00626 7.73791 6.18458 7.563L7.7274 6.052C7.90598 5.87723 8.14819 5.77905 8.40073 5.77905C8.65327 5.77905 8.89547 5.87723 9.07405 6.052L9.16601 6.143C9.58896 6.54961 10.1248 6.82544 10.7067 6.93615C11.2887 7.04685 11.8911 6.98754 12.4389 6.76558C12.9866 6.54363 13.4556 6.16886 13.7873 5.68794C14.119 5.20702 14.2988 4.64122 14.3043 4.061V3.932C14.3046 3.6849 14.405 3.448 14.5835 3.27327C14.7621 3.09854 15.0041 3.00026 15.2566 3H17.439C17.6915 3.00026 17.9336 3.09854 18.1121 3.27327C18.2906 3.448 18.391 3.6849 18.3913 3.932V4.061C18.3965 4.64122 18.5761 5.2071 18.9077 5.68811C19.2393 6.16912 19.7082 6.54398 20.2559 6.76597C20.8037 6.98796 21.4061 7.04726 21.9881 6.93648C22.57 6.8257 23.1058 6.54974 23.5286 6.143L23.6216 6.052C23.8002 5.87723 24.0424 5.77905 24.2949 5.77905C24.5474 5.77905 24.7896 5.87723 24.9682 6.052L26.5111 7.563C26.6894 7.73791 26.7895 7.97491 26.7895 8.222C26.7895 8.46909 26.6894 8.70609 26.5111 8.881L26.4181 8.972C26.0024 9.38594 25.7204 9.91049 25.6073 10.4803C25.4941 11.05 25.5549 11.6397 25.782 12.1759C26.009 12.7121 26.3924 13.171 26.8841 13.4954C27.3759 13.8198 27.9544 13.9953 28.5474 14H28.6782C28.9306 14.0003 29.1727 14.0985 29.3512 14.2733C29.5297 14.448 29.6302 14.6849 29.6304 14.932V17.068Z" fill="#37A58C"/>
<path d="M16.3478 9C14.9333 9 13.5505 9.41054 12.3743 10.1797C11.1981 10.9489 10.2814 12.0421 9.74008 13.3212C9.19875 14.6003 9.05711 16.0078 9.33308 17.3656C9.60905 18.7235 10.2902 19.9708 11.2905 20.9497C12.2907 21.9287 13.5651 22.5954 14.9525 22.8655C16.3399 23.1356 17.778 22.997 19.0848 22.4672C20.3917 21.9373 21.5087 21.0401 22.2946 19.889C23.0805 18.7378 23.5 17.3845 23.5 16C23.4978 14.1441 22.7436 12.3649 21.4028 11.0526C20.062 9.7403 18.244 9.00212 16.3478 9ZM16.3478 21C15.3374 21 14.3497 20.7068 13.5096 20.1573C12.6695 19.6079 12.0147 18.827 11.628 17.9134C11.2413 16.9998 11.1402 15.9945 11.3373 15.0245C11.5344 14.0546 12.021 13.1637 12.7354 12.4645C13.4499 11.7652 14.3602 11.289 15.3512 11.0961C16.3422 10.9031 17.3693 11.0022 18.3028 11.3806C19.2363 11.759 20.0342 12.3999 20.5956 13.2221C21.1569 14.0444 21.4565 15.0111 21.4565 16C21.4549 17.3256 20.9161 18.5964 19.9584 19.5338C19.0007 20.4711 17.7022 20.9984 16.3478 21Z" fill="#37A58C"/>
</svg>
