<svg width="30" height="31" viewBox="0 0 30 31" fill="none" xmlns="http://www.w3.org/2000/svg">
<g clip-path="url(#clip0_2_615)">
<path d="M7.11719 10.5228C7.23578 11.9415 7.50812 13.8849 8.12435 15.9254C9.4331 20.2588 11.7451 23.3401 14.9997 25.0911C18.2543 23.3401 20.5663 20.2588 21.8749 15.9254C22.4912 13.8851 22.7635 11.9416 22.8822 10.5228L14.9997 6.58154L7.11719 10.5228Z" fill="#37A58C"/>
<path d="M28.2319 7.80072C28.2155 7.48466 28.0304 7.20183 27.7473 7.06033L15.3913 0.882319C15.1439 0.758628 14.8527 0.758628 14.6052 0.882319L2.24928 7.06033C1.96621 7.20183 1.78105 7.48466 1.76465 7.80072C1.75527 7.9806 1.55207 12.2637 3.01111 17.2364C3.87443 20.1786 5.14428 22.7483 6.78537 24.8743C8.85344 27.5533 11.5115 29.5241 14.6857 30.7321C14.7864 30.7703 14.8923 30.7895 14.9983 30.7895C15.1043 30.7895 15.2102 30.7703 15.3109 30.7321C18.4851 29.5242 21.1431 27.5533 23.2112 24.8743C24.8523 22.7483 26.1221 20.1785 26.9854 17.2364C28.4445 12.2637 28.2413 7.9806 28.2319 7.80072ZM15.3878 26.8679C15.2651 26.9286 15.1316 26.959 14.9983 26.959C14.8649 26.959 14.7314 26.9286 14.6087 26.8679C10.6952 24.9329 7.94687 21.4224 6.44031 16.4338C5.6868 13.9387 5.41474 11.5876 5.31924 10.0546C5.29726 9.70261 5.48793 9.37161 5.8034 9.21388L14.6053 4.81296C14.8527 4.68933 15.1439 4.68927 15.3914 4.81296L24.1933 9.21388C24.5088 9.37156 24.6995 9.70267 24.6775 10.0547C24.5819 11.5877 24.3099 13.9389 23.5564 16.4338C22.0497 21.4223 19.3014 24.9329 15.3878 26.8679Z" fill="#37A58C"/>
</g>
<defs>
<clipPath id="clip0_2_615">
<rect width="30" height="30" fill="white" transform="translate(0 0.789551)"/>
</clipPath>
</defs>
</svg>
