<svg width="31" height="31" viewBox="0 0 31 31" fill="none" xmlns="http://www.w3.org/2000/svg">
<g clip-path="url(#clip0_2_705)">
<path d="M0.171875 10.5903H5.44531V21.1372H0.171875V10.5903Z" fill="#37A58C"/>
<path d="M7.20312 9.60059V22.1266L17.75 30.8571V0.870117L7.20312 9.60059Z" fill="#37A58C"/>
<path d="M20.5039 25.5317V23.7739C24.8656 23.7739 28.4141 20.2254 28.4141 15.8638C28.4141 11.5021 24.8656 7.95361 20.5039 7.95361V6.1958C25.8348 6.1958 30.1719 10.5329 30.1719 15.8638C30.1719 21.1947 25.8348 25.5317 20.5039 25.5317Z" fill="#37A58C"/>
<path d="M20.5039 22.0161V20.2583C22.9271 20.2583 24.8984 18.2869 24.8984 15.8638C24.8984 13.4406 22.9271 11.4692 20.5039 11.4692V9.71143C23.8963 9.71143 26.6562 12.4714 26.6562 15.8638C26.6562 19.2562 23.8963 22.0161 20.5039 22.0161Z" fill="#37A58C"/>
<path d="M20.5039 18.5005V16.7427C20.9885 16.7427 21.3828 16.3484 21.3828 15.8638C21.3828 15.3791 20.9885 14.9849 20.5039 14.9849V13.2271C21.9578 13.2271 23.1406 14.4099 23.1406 15.8638C23.1406 17.3177 21.9578 18.5005 20.5039 18.5005Z" fill="#37A58C"/>
</g>
<defs>
<clipPath id="clip0_2_705">
<rect width="30" height="30" fill="white" transform="translate(0.171875 0.86377)"/>
</clipPath>
</defs>
</svg>
