<svg width="31" height="31" viewBox="0 0 31 31" fill="none" xmlns="http://www.w3.org/2000/svg">
<g clip-path="url(#clip0_2_725)">
<path d="M9.03235 18.0066C9.62406 18.0066 10.1038 17.5269 10.1038 16.9352C10.1077 13.3864 12.9836 10.5104 16.5323 10.5066C17.124 10.5066 17.6038 10.0269 17.6038 9.43519C17.6038 8.84348 17.124 8.36375 16.5323 8.36375C12.9836 8.35983 10.1076 5.48396 10.1038 1.93521C10.1038 1.3435 9.62416 0.86377 9.03235 0.86377C8.44055 0.86377 7.96091 1.3435 7.96091 1.93521C7.957 5.48396 5.08113 8.35992 1.53238 8.36375C0.940668 8.36375 0.460938 8.84348 0.460938 9.43519C0.460938 10.0269 0.940668 10.5066 1.53238 10.5066C5.08113 10.5105 7.95709 13.3864 7.96091 16.9352C7.96091 17.527 8.44065 18.0066 9.03235 18.0066Z" fill="#37A58C"/>
<path d="M21.8896 22.2923C18.9324 22.2889 16.536 19.8924 16.5324 16.9351C16.5324 16.3434 16.0527 15.8637 15.461 15.8637C14.8693 15.8637 14.3896 16.3434 14.3896 16.9351C14.3861 19.8924 11.9896 22.2888 9.03238 22.2923C8.44067 22.2923 7.96094 22.7721 7.96094 23.3638C7.96094 23.9555 8.44067 24.4352 9.03238 24.4352C11.9896 24.4387 14.386 26.8352 14.3896 29.7924C14.3896 30.3841 14.8693 30.8638 15.461 30.8638C16.0527 30.8638 16.5324 30.3841 16.5324 29.7924C16.5359 26.8352 18.9324 24.4388 21.8896 24.4352C22.4813 24.4352 22.9611 23.9555 22.9611 23.3638C22.9611 22.7721 22.4813 22.2923 21.8896 22.2923Z" fill="#37A58C"/>
<path d="M29.3902 13.7209C27.3202 13.7184 25.6427 12.0409 25.6401 9.97085C25.6401 9.37914 25.1604 8.89941 24.5687 8.89941C23.977 8.89941 23.4973 9.37914 23.4973 9.97085C23.4947 12.0408 21.8173 13.7184 19.7472 13.7209C19.1555 13.7209 18.6758 14.2006 18.6758 14.7923C18.6758 15.384 19.1555 15.8638 19.7472 15.8638C21.8172 15.8663 23.4947 17.5437 23.4973 19.6138C23.4973 20.2055 23.977 20.6852 24.5687 20.6852C25.1604 20.6852 25.6401 20.2055 25.6401 19.6138C25.6427 17.5438 27.3201 15.8663 29.3902 15.8638C29.9819 15.8638 30.4616 15.384 30.4616 14.7923C30.4616 14.2005 29.982 13.7209 29.3902 13.7209Z" fill="#37A58C"/>
</g>
<defs>
<clipPath id="clip0_2_725">
<rect width="30" height="30" fill="white" transform="translate(0.460938 0.86377)"/>
</clipPath>
</defs>
</svg>
