<svg width="23" height="23" viewBox="0 0 23 23" fill="none" xmlns="http://www.w3.org/2000/svg">
<g clip-path="url(#clip0)">
<path d="M0.53413 23C0.40498 23 0.279339 22.9489 0.186161 22.8547C0.0633277 22.7305 0.0159492 22.5501 0.0620994 22.3814L1.55733 16.9213C0.62643 15.238 0.135624 13.3337 0.136326 11.4007C0.138958 5.11425 5.25479 0 11.5407 0C14.5896 0.00122833 17.4544 1.18885 19.6077 3.3437C21.7606 5.49872 22.9458 8.36337 22.9449 11.4098C22.9421 17.6964 17.8262 22.811 11.5407 22.811C11.5407 22.811 11.536 22.811 11.5358 22.811C9.69977 22.8103 7.87956 22.3628 6.25886 21.5153L0.658192 22.984C0.61713 22.9947 0.575367 23 0.53413 23Z" fill="#E5E5E5"/>
<path d="M0.534546 22.5105L2.08295 16.8561C1.12783 15.2012 0.625443 13.3239 0.626144 11.4007C0.628601 5.38416 5.52473 0.489258 11.5411 0.489258C14.4607 0.490486 17.2011 1.62687 19.2619 3.68942C21.3225 5.75196 22.4569 8.4936 22.4559 11.4095C22.4533 17.4259 17.5564 22.3215 11.5411 22.3215C11.5408 22.3215 11.5413 22.3215 11.5411 22.3215H11.5364C9.70966 22.3208 7.91489 21.8626 6.32069 20.9931L0.534546 22.5105ZM6.58865 19.0178L6.92012 19.2141C8.3127 20.0406 9.90936 20.4777 11.5376 20.4786H11.5411C16.5411 20.4786 20.6108 16.4097 20.6129 11.4088C20.6137 8.98528 19.6711 6.70638 17.9583 4.99215C16.2453 3.27792 13.9678 2.33334 11.5444 2.33228C6.54039 2.33228 2.47092 6.4007 2.46899 11.4014C2.46829 13.1151 2.94769 14.7839 3.85596 16.2281L4.07179 16.5713L3.15511 19.918L6.58865 19.0178Z" fill="white"/>
<path d="M0.914001 22.1295L2.40888 16.6706C1.48658 15.0731 1.00174 13.2606 1.00227 11.4043C1.00455 5.596 5.73135 0.870605 11.5391 0.870605C14.3579 0.871834 17.0036 1.96891 18.9926 3.96004C20.9821 5.95116 22.0771 8.59787 22.0761 11.4125C22.0736 17.2209 17.3466 21.9469 11.5396 21.9469C11.5391 21.9469 11.5398 21.9469 11.5396 21.9469H11.5349C9.77151 21.9462 8.03868 21.5036 6.49976 20.6648L0.914001 22.1295Z" fill="#64B161"/>
<path d="M0.534546 22.5105L2.08295 16.8561C1.12783 15.2012 0.625443 13.3239 0.626144 11.4007C0.628601 5.38416 5.52473 0.489258 11.5411 0.489258C14.4607 0.490486 17.2011 1.62687 19.2619 3.68942C21.3225 5.75196 22.4569 8.4936 22.4559 11.4095C22.4533 17.4259 17.5564 22.3215 11.5411 22.3215C11.5408 22.3215 11.5413 22.3215 11.5411 22.3215H11.5364C9.70966 22.3208 7.91489 21.8626 6.32069 20.9931L0.534546 22.5105ZM6.58865 19.0178L6.92012 19.2141C8.3127 20.0406 9.90936 20.4777 11.5376 20.4786H11.5411C16.5411 20.4786 20.6108 16.4097 20.6129 11.4088C20.6137 8.98528 19.6711 6.70638 17.9583 4.99215C16.2453 3.27792 13.9678 2.33334 11.5444 2.33228C6.54039 2.33228 2.47092 6.4007 2.46899 11.4014C2.46829 13.1151 2.94769 14.7839 3.85596 16.2281L4.07179 16.5713L3.15511 19.918L6.58865 19.0178Z" fill="white"/>
<path fill-rule="evenodd" clip-rule="evenodd" d="M8.81325 6.83898C8.609 6.38484 8.39387 6.37572 8.19944 6.36782C8.04046 6.36098 7.85849 6.36133 7.67687 6.36133C7.49508 6.36133 7.19958 6.42977 6.9497 6.70263C6.69965 6.9755 5.99493 7.63529 5.99493 8.97715C5.99493 10.3192 6.97234 11.6158 7.10868 11.7979C7.24502 11.9799 8.9954 14.8216 11.7674 15.9148C14.0712 16.8234 14.5399 16.6427 15.04 16.5972C15.5401 16.5518 16.6535 15.9374 16.8808 15.3006C17.1082 14.6638 17.1082 14.1181 17.0399 14.0038C16.9717 13.8903 16.7899 13.822 16.5172 13.6857C16.2445 13.5494 14.9037 12.8894 14.6536 12.7985C14.4036 12.7074 14.2218 12.6622 14.04 12.9352C13.858 13.2079 13.3358 13.822 13.1766 14.0038C13.0175 14.1862 12.8583 14.209 12.5856 14.0725C12.3129 13.9358 11.4345 13.648 10.3925 12.7188C9.58184 11.996 9.03435 11.1032 8.8752 10.8302C8.71622 10.5575 8.87256 10.4227 8.99505 10.2737C9.21562 10.0054 9.5857 9.52306 9.67659 9.34127C9.76749 9.15912 9.72204 8.99997 9.65396 8.86345C9.5857 8.7271 9.05559 7.37839 8.81325 6.83898Z" fill="white"/>
</g>
<defs>
<clipPath id="clip0">
<rect width="23" height="23" fill="white"/>
</clipPath>
</defs>
</svg>