<svg width="33" height="32" viewBox="0 0 33 32" fill="none" xmlns="http://www.w3.org/2000/svg">
<g clip-path="url(#clip0_45_563)">
<path d="M16.353 6.2561C15.1198 6.2561 13.9306 6.69379 13.0045 7.48854C12.7393 7.71617 12.7128 8.11092 12.9453 8.37042C13.1777 8.62986 13.5811 8.6558 13.8463 8.42836C14.5394 7.83348 15.4296 7.50598 16.3529 7.50598C18.4513 7.50598 20.1584 9.17648 20.1584 11.2299C20.1584 12.0913 19.8664 12.9003 19.3139 13.5693C19.0922 13.8377 19.1348 14.2312 19.4091 14.4481C19.5273 14.5416 19.6692 14.5871 19.8101 14.5871C19.9963 14.5871 20.1809 14.5077 20.307 14.3549C21.0348 13.4739 21.4355 12.3641 21.4355 11.2299C21.4355 8.48736 19.1555 6.2561 16.353 6.2561Z" fill="#37A58C"/>
<path d="M13.5015 13.695C12.8867 13.0144 12.5481 12.139 12.5481 11.2299C12.5481 10.8193 12.6157 10.4164 12.7491 10.0325C12.8626 9.70571 12.6839 9.35071 12.3501 9.23964C12.0162 9.12877 11.6535 9.30339 11.54 9.63014C11.3615 10.1439 11.2711 10.6821 11.2711 11.2299C11.2711 12.4443 11.7234 13.6137 12.5449 14.5229C12.671 14.6626 12.8468 14.7339 13.0234 14.7339C13.1737 14.7339 13.3246 14.6823 13.4461 14.5771C13.7102 14.3485 13.735 13.9535 13.5015 13.695Z" fill="#37A58C"/>
<path d="M22.7097 6.15219C22.4865 5.88494 22.0844 5.84525 21.8112 6.0635C21.5382 6.28188 21.4976 6.67556 21.7207 6.94281C22.7268 8.14832 23.2809 9.67088 23.2809 11.2301C23.2809 13.022 22.5735 14.7116 21.2891 15.9878C21.0416 16.2338 21.0447 16.6295 21.2959 16.8716C21.4203 16.9915 21.5821 17.0513 21.7439 17.0513C21.9089 17.0513 22.0738 16.989 22.1988 16.8649C23.72 15.3533 24.5579 13.3522 24.5579 11.2301C24.5578 9.38357 23.9014 7.58032 22.7097 6.15219Z" fill="#37A58C"/>
<path d="M20.8622 4.51978C19.5222 3.65609 17.9629 3.19946 16.3529 3.19946C11.8291 3.19946 8.14868 6.80184 8.14868 11.2298C8.14868 11.9549 8.24773 12.6745 8.44294 13.3686C8.52092 13.6459 8.77795 13.8279 9.05816 13.8279C9.11429 13.8279 9.17132 13.8205 9.22809 13.8053C9.56807 13.7136 9.76782 13.3696 9.67414 13.0369C9.50926 12.4509 9.42567 11.8429 9.42567 11.2299C9.42567 7.49103 12.5332 4.44934 16.3529 4.44934C17.7124 4.44934 19.0288 4.83465 20.1597 5.56365C20.4543 5.75353 20.8502 5.67372 21.0441 5.3854C21.2382 5.09715 21.1567 4.70972 20.8622 4.51978Z" fill="#37A58C"/>
<path d="M12.8705 17.0923C11.9489 16.567 11.1509 15.8276 10.5629 14.9539C10.3689 14.6655 9.97293 14.586 9.67848 14.7756C9.38403 14.9655 9.30248 15.353 9.49642 15.6412C10.1923 16.6754 11.1368 17.5505 12.228 18.1724C12.3291 18.23 12.4396 18.2574 12.5486 18.2574C12.7685 18.2574 12.9824 18.1461 13.101 17.9468C13.2785 17.6485 13.1753 17.2659 12.8705 17.0923Z" fill="#37A58C"/>
<path d="M27.0944 12.7683C26.7487 12.6989 26.4114 12.9163 26.3402 13.2543C26.037 14.6956 25.3947 16.0791 24.4827 17.2551C24.2695 17.5301 24.3243 17.9222 24.6053 18.1308C24.7207 18.2165 24.8563 18.258 24.9908 18.258C25.1838 18.258 25.3743 18.1728 25.4999 18.0108C26.5265 16.687 27.2496 15.1294 27.591 13.5064C27.6622 13.1684 27.4398 12.838 27.0944 12.7683Z" fill="#37A58C"/>
<path d="M24.2951 3.12476C22.1486 1.10975 19.3281 0 16.3529 0C12.9164 0 9.6894 1.48925 7.49924 4.08601C7.27471 4.35213 7.31315 4.74613 7.58519 4.96576C7.8571 5.18545 8.2596 5.14795 8.48407 4.88163C10.4308 2.57357 13.299 1.24981 16.3529 1.24981C21.8239 1.24981 26.2988 5.43657 26.5404 10.7813C26.5555 11.1167 26.8381 11.3787 27.1778 11.3786C27.1873 11.3786 27.1969 11.3785 27.2065 11.378C27.5588 11.3628 27.8318 11.0709 27.8162 10.726C27.6853 7.8332 26.4349 5.13357 24.2951 3.12476Z" fill="#37A58C"/>
<path d="M9.5475 18.6425C9.10515 18.2412 8.69607 17.8207 8.33157 17.3923C6.92852 15.7433 6.15583 13.5548 6.15583 11.2299C6.15583 9.61558 6.55833 8.01283 7.31992 6.59501C7.48403 6.28951 7.36398 5.91164 7.05184 5.75107C6.73976 5.59051 6.3536 5.70801 6.18955 6.01339C5.33212 7.60989 4.87878 9.41383 4.87878 11.2299C4.87878 13.8465 5.75646 16.319 7.35018 18.1922C7.74962 18.6617 8.19682 19.1215 8.67941 19.5592C8.80233 19.6707 8.95796 19.7258 9.11326 19.7258C9.28485 19.7258 9.45593 19.6585 9.58173 19.5256C9.82152 19.2725 9.80619 18.8772 9.5475 18.6425Z" fill="#37A58C"/>
<path d="M24.3972 19.058L18.5994 17.8679V11.1218C18.5994 9.90959 17.5917 8.92334 16.3531 8.92334C15.754 8.92334 15.1902 9.15172 14.7645 9.56747C14.3408 9.98303 14.1074 10.5351 14.1074 11.1218V24.2927L11.5004 21.7412C11.0763 21.3261 10.5123 21.0974 9.91241 21.0974C9.31252 21.0974 8.74852 21.3261 8.32392 21.7416C7.90015 22.1572 7.66675 22.7092 7.66675 23.2961C7.66675 23.8833 7.90034 24.4353 8.32437 24.8504L14.2252 30.6256L14.7788 31.6641C14.8888 31.8706 15.1069 32 15.3449 32H26.2296C26.5697 32 26.8501 31.7391 26.8673 31.4067L27.3149 22.7628C27.4074 20.9822 26.1803 19.4241 24.3972 19.058ZM26.0394 22.6996L25.6226 30.7503H15.7319L15.3121 29.9625C15.282 29.9061 15.2433 29.8546 15.1974 29.8096L9.22733 23.9666C9.04444 23.7876 8.9438 23.5495 8.9438 23.2961C8.9438 23.0426 9.04469 22.8041 9.22733 22.6249C9.41035 22.4457 9.65359 22.3472 9.91241 22.3472C10.1712 22.3472 10.4145 22.4458 10.5975 22.6249L14.2945 26.2432C14.4771 26.4219 14.7516 26.4753 14.9903 26.3787C15.229 26.2819 15.3845 26.0541 15.3845 25.8013V11.1218C15.3845 10.8684 15.4854 10.63 15.6675 10.4513C15.8511 10.272 16.0946 10.1733 16.3531 10.1733C16.8875 10.1733 17.3223 10.5988 17.3223 11.1219V18.3754C17.3223 18.671 17.5341 18.9263 17.8298 18.987L24.135 20.2813C25.299 20.5202 26.0999 21.5372 26.0394 22.6996Z" fill="#37A58C"/>
<path d="M22.0998 28.6443H19.2755C18.9229 28.6443 18.637 28.9241 18.637 29.2692C18.637 29.6143 18.9229 29.8942 19.2755 29.8942H22.0998C22.4524 29.8942 22.7383 29.6144 22.7383 29.2692C22.7383 28.9242 22.4524 28.6443 22.0998 28.6443Z" fill="#37A58C"/>
<path d="M24.2123 28.6443C23.3906 28.6442 23.3893 29.8942 24.2123 29.8942C25.0339 29.8942 25.0353 28.6443 24.2123 28.6443Z" fill="#37A58C"/>
</g>
<defs>
<clipPath id="clip0_45_563">
<rect width="32.6957" height="32" fill="white"/>
</clipPath>
</defs>
</svg>
