<svg width="30" height="31" viewBox="0 0 30 31" fill="none" xmlns="http://www.w3.org/2000/svg">
<g clip-path="url(#clip0_2_685)">
<path d="M18.5699 9.41045C18.5699 11.3792 16.9686 12.9812 14.9998 12.9812C13.0311 12.9812 11.4297 11.3792 11.4297 9.41045C11.4297 7.4417 13.0311 5.84033 14.9998 5.84033C16.9686 5.84033 18.5699 7.4417 18.5699 9.41045Z" fill="#37A58C"/>
<path d="M7.25781 10.2896H9.02629C9.51168 10.2896 9.9052 9.89607 9.9052 9.41068C9.9052 8.92529 9.51168 8.53178 9.02629 8.53178H7.25781C6.77242 8.53178 6.37891 8.92529 6.37891 9.41068C6.37891 9.89607 6.77242 10.2896 7.25781 10.2896Z" fill="#37A58C"/>
<path d="M20.0938 9.41064C20.0938 9.89604 20.4873 10.2896 20.9727 10.2896H22.7411C23.2265 10.2896 23.62 9.89604 23.62 9.41064C23.62 8.92525 23.2265 8.53174 22.7411 8.53174H20.9727C20.4873 8.53174 20.0938 8.92525 20.0938 9.41064Z" fill="#37A58C"/>
<path d="M14.1211 15.3843V17.1528C14.1211 17.6381 14.5146 18.0317 15 18.0317C15.4854 18.0317 15.8789 17.6381 15.8789 17.1528V15.3843C15.8789 14.8989 15.4854 14.5054 15 14.5054C14.5146 14.5054 14.1211 14.8989 14.1211 15.3843Z" fill="#37A58C"/>
<path d="M15 4.31584C15.4854 4.31584 15.8789 3.92232 15.8789 3.43693V1.66846C15.8789 1.18307 15.4854 0.789551 15 0.789551C14.5146 0.789551 14.1211 1.18307 14.1211 1.66846V3.43693C14.1211 3.92232 14.5146 4.31584 15 4.31584Z" fill="#37A58C"/>
<path d="M10.1563 13.0133L8.90585 14.2638C8.5626 14.607 8.56266 15.1635 8.90585 15.5067C9.24909 15.85 9.80556 15.8499 10.1488 15.5067L11.3992 14.2562C11.7425 13.913 11.7425 13.3565 11.3992 13.0133C11.056 12.67 10.4995 12.6701 10.1563 13.0133Z" fill="#37A58C"/>
<path d="M18.6012 13.0133C18.2579 13.3565 18.2579 13.913 18.6012 14.2562L19.8516 15.5067C20.1948 15.85 20.7513 15.85 21.0946 15.5067C21.4378 15.1635 21.4378 14.607 21.0946 14.2638L19.8441 13.0133C19.501 12.6701 18.9445 12.67 18.6012 13.0133Z" fill="#37A58C"/>
<path d="M10.1563 5.808C10.4995 6.15124 11.0559 6.15124 11.3992 5.808C11.7425 5.46475 11.7425 4.90829 11.3992 4.56505L10.1488 3.31454C9.80567 2.97135 9.24915 2.9713 8.90585 3.31454C8.56266 3.65778 8.5626 4.21425 8.90585 4.55749L10.1563 5.808Z" fill="#37A58C"/>
<path d="M19.8441 5.80797L21.0946 4.55747C21.4378 4.21422 21.4378 3.65776 21.0946 3.31452C20.7514 2.97133 20.1949 2.97133 19.8516 3.31452L18.6012 4.56502C18.2579 4.90827 18.2579 5.46473 18.6012 5.80797C18.9444 6.15127 19.5009 6.15122 19.8441 5.80797Z" fill="#37A58C"/>
<path d="M0 26.5233V29.9107C0 30.3501 0.323438 30.7151 0.745313 30.7796L5.00098 26.5233H0Z" fill="#37A58C"/>
<path d="M7.48822 26.5234L3.22266 30.7896H5.95131L10.2175 26.5234H7.48822Z" fill="#37A58C"/>
<path d="M12.7031 26.5234L8.4375 30.7896H11.1662L15.4324 26.5234H12.7031Z" fill="#37A58C"/>
<path d="M17.9179 26.5234L13.6523 30.7896H16.3811L20.6472 26.5234H17.9179Z" fill="#37A58C"/>
<path d="M23.1328 26.5234L18.8672 30.7896H21.5959L25.8621 26.5234H23.1328Z" fill="#37A58C"/>
<path d="M28.3482 26.5234L24.082 30.7896H29.1228C29.6079 30.7896 30.0017 30.3959 30.0017 29.9107V26.5234H28.3482Z" fill="#37A58C"/>
<path d="M29.9998 22.8794C29.9998 22.394 29.6063 22.0005 29.1209 22.0005H17.9687L27.3043 15.9405L27.1318 16.6523C26.9982 17.2035 27.4154 17.7384 27.9867 17.7384C28.383 17.7384 28.7428 17.4685 28.8402 17.0662C29.6515 13.7184 29.5186 14.2674 29.5348 14.1976C29.6443 13.7218 29.3457 13.2577 28.8858 13.1464L26.0271 12.4536C25.5549 12.3394 25.0801 12.6292 24.9659 13.1008C24.8515 13.5725 25.1413 14.0477 25.613 14.162L26.4888 14.3742L15 21.8318L2.8377 13.937C2.43059 13.6728 1.88631 13.7886 1.62193 14.1957C1.35768 14.6029 1.47352 15.1472 1.88063 15.4115L12.0314 22.0005H0.878906C0.393516 22.0005 0 22.394 0 22.8794V24.7656H29.9998C29.9998 23.7517 29.9998 23.8983 29.9998 22.8794Z" fill="#37A58C"/>
</g>
<defs>
<clipPath id="clip0_2_685">
<rect width="30" height="30" fill="white" transform="translate(0 0.789551)"/>
</clipPath>
</defs>
</svg>
