<svg width="31" height="31" viewBox="0 0 31 31" fill="none" xmlns="http://www.w3.org/2000/svg">
<g clip-path="url(#clip0_2_98)">
<g clip-path="url(#clip1_2_98)">
<path d="M13.5756 12.3561C14.0768 12.1023 14.6425 11.9583 15.2416 11.9583C15.8405 11.9583 16.406 12.1022 16.9069 12.3558L18.0344 4.88107C17.0268 4.66264 15.5338 4.39094 14.699 4.43482C14.1032 4.46646 13.5671 4.73898 13.1895 5.20229C12.8108 5.66705 12.6515 6.24941 12.7412 6.84209L13.5756 12.3561Z" fill="#37A58C"/>
<path d="M15.2418 13.7161C14.1704 13.7161 13.2988 14.5878 13.2988 15.6592C13.2988 16.7305 14.1704 17.6022 15.2418 17.6022C16.3132 17.6022 17.1848 16.7305 17.1848 15.6592C17.1848 14.5878 16.3132 13.7161 15.2418 13.7161Z" fill="#37A58C"/>
<path d="M23.7817 18.3137L18.9129 16.1168C18.7636 17.3218 18.0337 18.3491 17.0117 18.9082L22.4955 23.8683C23.3108 23.1395 24.0337 22.3143 24.6502 21.4078C25.0007 20.8925 25.1049 20.2533 24.9361 19.6543C24.7678 19.0574 24.3471 18.5688 23.7817 18.3137V18.3137Z" fill="#37A58C"/>
<path d="M11.5673 16.0945L4.59863 18.8812C5.11607 20.0698 5.78387 21.188 6.58555 22.2077C6.94373 22.6633 7.46071 22.9414 8.04131 22.9906C8.62854 23.0405 9.19309 22.8501 9.63032 22.4547L13.5219 18.9347C12.4673 18.3787 11.7126 17.3288 11.5673 16.0945V16.0945Z" fill="#37A58C"/>
<path d="M25.7785 4.87041C22.9453 2.03734 19.1785 0.477051 15.1719 0.477051C11.1652 0.477051 7.39842 2.03734 4.56523 4.87041C1.73217 7.70359 0.171875 11.4704 0.171875 15.4771C0.171875 19.4837 1.73217 23.2505 4.56523 26.0837C7.39842 28.9168 11.1652 30.4771 15.1719 30.4771C19.1785 30.4771 22.9453 28.9168 25.7785 26.0837C28.6116 23.2505 30.1719 19.4837 30.1719 15.4771C30.1719 11.4704 28.6116 7.70359 25.7785 4.87041V4.87041ZM23.0243 25.7221L22.4404 26.1887L15.2813 19.7133L10.8093 23.7583C10.0987 24.4011 9.16824 24.7558 8.21586 24.7558C8.10828 24.7558 8.00041 24.7513 7.89254 24.7421C6.83662 24.6526 5.85652 24.1248 5.20344 23.2941C4.25738 22.0907 3.47844 20.7644 2.88834 19.3522L2.2867 17.9125L11.9008 14.0678C11.9383 13.9895 11.979 13.913 12.0218 13.8378L11.0029 7.10506C10.8405 6.03174 11.1407 4.9334 11.8266 4.09176C12.5114 3.25158 13.5243 2.73684 14.6056 2.67947C16.1949 2.59422 19.1156 3.32512 19.2392 3.35623L20.0125 3.551L18.4608 13.8374C18.4968 13.9008 18.5313 13.965 18.5636 14.0305L24.5047 16.7114C25.5444 17.1806 26.3183 18.0793 26.6278 19.1771C26.938 20.2771 26.747 21.4505 26.1037 22.3963C25.2485 23.6538 24.2124 24.7727 23.0243 25.7221V25.7221ZM18.0477 25.8545C17.0865 26.1999 16.0897 26.3731 15.0896 26.3731C14.2312 26.3731 13.3702 26.2455 12.5271 25.9901L13.037 24.3078C14.4982 24.7506 16.0253 24.7135 17.4532 24.2003L18.0477 25.8545ZM5.944 14.0754C6.28109 12.2078 7.19498 10.5311 8.58687 9.22668L9.78887 10.5094C8.67471 11.5534 7.94334 12.8945 7.67387 14.3876L5.944 14.0754ZM24.9246 14.0468L23.2128 14.4464C22.8657 12.9595 22.07 11.6555 20.9116 10.6755L22.047 9.33361C23.4959 10.5594 24.491 12.1892 24.9246 14.0468V14.0468Z" fill="#37A58C"/>
</g>
</g>
<defs>
<clipPath id="clip0_2_98">
<rect width="30" height="30" fill="white" transform="translate(0.171875 0.429688)"/>
</clipPath>
<clipPath id="clip1_2_98">
<rect width="30" height="30" fill="white" transform="translate(0.171875 0.477051)"/>
</clipPath>
</defs>
</svg>
