<svg width="30" height="31" viewBox="0 0 30 31" fill="none" xmlns="http://www.w3.org/2000/svg">
<path d="M21.9231 11.1028H30V7.35278C30 4.96689 28.059 3.02586 25.6731 3.02586H4.32691C1.94104 3.02586 0 4.96689 0 7.35278V23.5066C0 25.8925 1.94104 27.8335 4.32691 27.8335H25.6731C28.059 27.8335 30 25.8925 30 23.5066V19.7566H21.9231C19.5372 19.7566 17.5962 17.8156 17.5962 15.4297C17.5962 13.0438 19.5372 11.1028 21.9231 11.1028Z" fill="#37A58C"/>
<path d="M21.9233 12.8335C20.4918 12.8335 19.3271 13.9981 19.3271 15.4297C19.3271 16.8613 20.4918 18.0259 21.9233 18.0259H30.0002V12.8336H21.9233V12.8335ZM23.0771 16.2951H21.9233C21.4454 16.2951 21.0579 15.9076 21.0579 15.4297C21.0579 14.9518 21.4454 14.5643 21.9233 14.5643H23.0771C23.5551 14.5643 23.9425 14.9518 23.9425 15.4297C23.9425 15.9076 23.5551 16.2951 23.0771 16.2951Z" fill="#37A58C"/>
</svg>
