<svg width="31" height="31" viewBox="0 0 31 31" fill="none" xmlns="http://www.w3.org/2000/svg">
<g clip-path="url(#clip0_2_11)">
<path d="M15.8282 0.477051C13.5364 0.477051 11.6719 2.34156 11.6719 4.63334C11.6719 4.84199 11.6878 5.04689 11.7176 5.2474H13.5236C13.4713 5.05141 13.443 4.84562 13.443 4.63334C13.443 3.31814 14.513 2.24816 15.8282 2.24816C17.1434 2.24816 18.2133 3.31814 18.2133 4.63334C18.2133 4.84562 18.185 5.05135 18.1328 5.2474H19.9388C19.9686 5.04695 19.9845 4.84199 19.9845 4.63334C19.9843 2.34156 18.1199 0.477051 15.8282 0.477051Z" fill="#37A58C"/>
<path d="M29.9522 24.091L27.7298 11.5118C27.2698 8.90817 25.017 7.01846 22.3731 7.01846H9.2837C6.63983 7.01846 4.38696 8.90817 3.92694 11.5118L1.7046 24.091C1.42411 25.6788 1.85759 27.2979 2.89376 28.5332C3.92999 29.7686 5.44898 30.477 7.06142 30.477H24.5955C26.2079 30.477 27.7269 29.7685 28.7631 28.5333C29.7993 27.2979 30.2326 25.6788 29.9522 24.091ZM15.115 22.2931C14.943 22.4594 14.721 22.5422 14.4992 22.5423C14.2677 22.5423 14.0365 22.452 13.8627 22.2725L11.3811 19.708V21.6567C11.3811 22.1458 10.9846 22.5423 10.4955 22.5423C10.0064 22.5423 9.60989 22.1458 9.60989 21.6567V15.8388C9.60989 15.3497 10.0064 14.9532 10.4955 14.9532C10.9846 14.9532 11.3811 15.3497 11.3811 15.8388V17.7875L13.8627 15.223C14.2029 14.8715 14.7634 14.8623 15.115 15.2024C15.4665 15.5426 15.4756 16.1031 15.1356 16.4546L12.9165 18.7478L15.1356 21.0409C15.4757 21.3923 15.4665 21.9529 15.115 22.2931ZM19.2119 22.5423C17.6485 22.5423 16.3766 21.2704 16.3766 19.707V17.7886C16.3766 16.2252 17.6485 14.9533 19.2119 14.9533C20.0913 14.9533 20.9061 15.3512 21.4478 16.0449C21.7488 16.4304 21.6802 16.987 21.2946 17.2879C20.909 17.5889 20.3525 17.5203 20.0516 17.1348C19.848 16.874 19.5419 16.7244 19.2118 16.7244C18.6251 16.7244 18.1477 17.2018 18.1477 17.7885V19.7069C18.1477 20.2937 18.6251 20.7711 19.2118 20.7711C19.7384 20.7711 20.177 20.3865 20.2613 19.8834H19.8322C19.3431 19.8834 18.9466 19.4869 18.9466 18.9978C18.9466 18.5087 19.3431 18.1122 19.8322 18.1122H21.1615C21.6506 18.1122 22.0471 18.5087 22.0471 18.9978V19.7069H22.0471C22.0471 21.2704 20.7752 22.5423 19.2119 22.5423Z" fill="#37A58C"/>
</g>
<defs>
<clipPath id="clip0_2_11">
<rect width="30" height="30" fill="white" transform="translate(0.828125 0.477051)"/>
</clipPath>
</defs>
</svg>
