<svg width="31" height="31" viewBox="0 0 31 31" fill="none" xmlns="http://www.w3.org/2000/svg">
<g clip-path="url(#clip0_2_73)">
<path d="M14.2832 3.39746H15.2207V23.085H14.2832V3.39746Z" fill="#37A58C"/>
<path d="M4.43945 23.085H13.3457V3.39746H4.43945V23.085ZM6.16398 19.679L5.52742 18.9909L11.6212 13.3659L12.2577 14.054L6.16398 19.679ZM11.608 6.81605L12.2709 7.47887L6.17711 13.5726L5.5143 12.9098L11.608 6.81605Z" fill="#37A58C"/>
<path d="M16.1582 23.085H25.0645V3.39746H16.1582V23.085ZM17.8827 19.679L17.2462 18.9909L23.3399 13.3659L23.9765 14.054L17.8827 19.679ZM23.3268 6.81605L23.9896 7.47887L17.8959 13.5726L17.233 12.9098L23.3268 6.81605Z" fill="#37A58C"/>
<path d="M26.9395 1.52246H2.56445V24.96H26.9395V1.52246ZM26.002 23.5537C26.002 23.678 25.9526 23.7973 25.8647 23.8852C25.7768 23.9731 25.6575 24.0225 25.5332 24.0225H3.9707C3.84638 24.0225 3.72715 23.9731 3.63925 23.8852C3.55134 23.7973 3.50195 23.678 3.50195 23.5537V2.92871C3.50195 2.80439 3.55134 2.68516 3.63925 2.59725C3.72715 2.50935 3.84638 2.45996 3.9707 2.45996H25.5332C25.6575 2.45996 25.7768 2.50935 25.8647 2.59725C25.9526 2.68516 26.002 2.80439 26.002 2.92871V23.5537Z" fill="#37A58C"/>
<path d="M1.1582 27.7725H28.3457V28.71H1.1582V27.7725Z" fill="#37A58C"/>
</g>
<defs>
<clipPath id="clip0_2_73">
<rect width="30" height="30" fill="white" transform="translate(0.171875 0.477051)"/>
</clipPath>
</defs>
</svg>
