<svg width="33" height="32" viewBox="0 0 33 32" fill="none" xmlns="http://www.w3.org/2000/svg">
<g clip-path="url(#clip0_45_597)">
<path d="M27.8121 7.802L26.5385 5.1185C26.4068 4.841 26.1452 4.64387 25.8375 4.59056C25.5297 4.53712 25.2149 4.63444 24.994 4.85081L23.1508 6.65637V2.61512C23.1508 1.17319 21.9532 0 20.4811 0H7.20358C5.73157 0 4.53397 1.17319 4.53397 2.61512V5.30569C4.53397 5.6125 4.68716 5.89988 4.94426 6.07513C5.20135 6.25038 5.52965 6.29138 5.82327 6.18488C6.02986 6.11 6.24864 6.07781 6.47284 6.08944C7.27133 6.13056 7.94038 6.77406 7.99607 7.55431C8.02787 8.0005 7.87524 8.42488 7.56642 8.74931C7.25716 9.07413 6.83741 9.253 6.38427 9.253C6.19091 9.253 6.00221 9.22012 5.82334 9.15525C5.52965 9.04875 5.20129 9.08969 4.94432 9.265C4.68716 9.44025 4.53397 9.72769 4.53397 10.0344V29.3848C4.53397 30.8268 5.73157 32 7.20358 32H20.4811C21.9532 32 23.1508 30.8268 23.1508 29.3849V26.5155C23.1508 26.2043 22.9931 25.9134 22.7299 25.739C22.4944 25.5829 22.2018 25.5384 21.9314 25.6139C21.9309 25.6141 21.9304 25.6142 21.9299 25.6144C21.9266 25.6153 21.9233 25.6162 21.92 25.6172C21.9198 25.6173 21.9195 25.6173 21.9192 25.6174C21.7768 25.659 21.6007 25.7047 21.3985 25.7504C21.345 25.7556 21.2911 25.7582 21.2368 25.7582C20.7836 25.7582 20.3638 25.5793 20.0544 25.2542C19.7456 24.9298 19.5931 24.5053 19.6251 24.059C19.6806 23.2831 20.3195 22.6544 21.1111 22.5968C21.3636 22.5784 21.608 22.6149 21.8376 22.7051C22.1324 22.8209 22.4667 22.7858 22.73 22.6114C22.9932 22.4371 23.1508 22.1461 23.1508 21.8349V15.8029L27.0584 11.975C28.1748 10.8815 28.4777 9.20444 27.8121 7.802ZM7.20358 30.125C6.78696 30.125 6.448 29.7929 6.448 29.3849V11.1275C7.40046 11.1104 8.3151 10.7119 8.96602 10.0282C9.64094 9.31938 9.97447 8.3945 9.90538 7.42387C9.78155 5.68719 8.34908 4.30856 6.57329 4.21706C6.5314 4.21494 6.48964 4.21344 6.44794 4.21275V2.61512C6.44794 2.207 6.7869 1.875 7.20352 1.875H9.93437C10.6464 2.8255 12.5391 5.55263 12.8939 8.11588C13.2798 10.9038 12.2329 12.7334 11.0207 14.8521C10.0607 16.5297 8.97266 18.4313 8.63529 20.9533C8.06146 25.2434 9.49643 28.3722 10.6636 30.125H7.20358ZM21.2368 27.6943V29.3849C21.2368 29.793 20.8978 30.125 20.4812 30.125H13.0521C12.2639 29.2384 9.87753 26.0978 10.5332 21.1969C10.8227 19.033 11.7722 17.3736 12.6904 15.7689C13.955 13.5588 15.2627 11.2734 14.7907 7.86394C14.4769 5.59713 13.2096 3.31962 12.258 1.875H15.0692C15.8907 3.30262 18.3009 8.14594 16.4483 13.0618C16.2662 13.545 15.9679 14.1734 15.6226 14.9011C14.6816 16.8838 13.3928 19.5991 13.1472 22.227C12.9587 24.2451 13.4905 25.7706 14.7282 26.7611C15.8557 27.6635 17.3892 27.9266 18.7944 27.9266C19.7132 27.9266 20.5771 27.8142 21.2368 27.6943ZM25.705 10.6493L21.5171 14.7518C21.3376 14.9276 21.2367 15.1661 21.2367 15.4147V20.7171C21.148 20.7172 21.0587 20.7205 20.9692 20.727C19.2359 20.8532 17.8372 22.2292 17.7157 23.9279C17.6613 24.6873 17.8535 25.4188 18.2628 26.0408C17.3765 25.9866 16.528 25.7814 15.9372 25.3074C15.2137 24.7271 14.9246 23.7754 15.0533 22.3979C15.2686 20.0943 16.4764 17.5496 17.3582 15.6916C17.7212 14.9267 18.0347 14.2661 18.2439 13.7111C19.2941 10.9242 19.3098 7.74187 18.2891 4.50794C17.957 3.45575 17.5671 2.55856 17.2286 1.875H20.481C20.8976 1.875 21.2366 2.20706 21.2366 2.61512V8.91975C21.2366 9.29894 21.4697 9.64081 21.8274 9.78588C22.1849 9.93094 22.5967 9.85081 22.8703 9.58263L25.3796 7.1245L26.0763 8.59244C26.4045 9.28369 26.2552 10.1103 25.705 10.6493Z" fill="#37A58C"/>
</g>
<defs>
<clipPath id="clip0_45_597">
<rect width="32.6957" height="32" fill="white"/>
</clipPath>
</defs>
</svg>
