<?xml version="1.0" encoding="UTF-8"?>
<svg width="52" height="52" viewBox="0 0 52 52" fill="none" xmlns="http://www.w3.org/2000/svg">
<path d="M51.5266 16.2292L40.8336 26.533L38.6399 24.2096L46.7322 16.4112C47.5149 15.657 47.5362 14.4125 46.7815 13.6303L39.5571 6.14358C39.1912 5.76645 38.699 5.55166 38.1739 5.54346C37.6538 5.53198 37.1501 5.73038 36.7727 6.09275L30.395 12.2366L35.9326 17.9673C36.3855 18.4412 36.3494 19.2217 35.8752 19.6824C35.5421 20.0005 35.0548 20.1005 34.6413 19.9661L26.608 11.4545L37.1189 1.31637C37.7571 0.708047 38.781 0.74248 39.393 1.37704L51.543 13.9632C52.155 14.5961 52.155 15.6176 51.5266 16.2292ZM15.2259 46.7764C14.8534 47.1388 14.3481 47.3372 13.8279 47.3241C13.3045 47.3143 12.8074 47.0995 12.4431 46.7272L5.21875 39.2372C4.46563 38.4551 4.48532 37.222 5.26798 36.4612L8.59057 39.9111C9.04834 40.385 9.79982 40.3981 10.274 39.9455C10.7482 39.493 10.758 38.7437 10.2986 38.2682L6.98096 34.8134L7.86534 33.9591L11.1879 37.409C11.6424 37.8796 12.3939 37.8959 12.8714 37.4434C13.3439 36.9826 13.3554 36.2366 12.896 35.7594L9.57504 32.3145L10.4611 31.4602L13.7804 34.9068C14.2381 35.3774 14.9929 35.3938 15.4638 34.9412C15.9413 34.4854 15.9495 33.7377 15.4933 33.2606L12.1708 29.814L13.0551 28.9597L16.3777 32.403C16.8339 32.8802 17.5853 32.8949 18.0612 32.4375C18.2367 32.2669 18.3516 32.0538 18.3975 31.8341L12.2462 25.3081L0.475247 36.6432C-0.154815 37.2548 -0.154815 38.2796 0.453916 38.9109L12.6039 51.5053C13.2143 52.1382 14.2414 52.1726 14.8715 51.5577L26.4669 40.3883L24.2748 38.0648L15.2259 46.7764ZM36.456 15.8308C34.9235 14.2485 34.9695 11.7136 36.5577 10.187C38.1378 8.65721 40.6728 8.70312 42.2004 10.287C43.7329 11.8726 43.6787 14.4076 42.0987 15.9308C40.5219 17.4606 37.9869 17.4147 36.456 15.8308ZM38.1706 14.178C38.7876 14.8109 39.8049 14.829 40.448 14.2157C41.083 13.6008 41.1011 12.581 40.4841 11.9448C39.8688 11.3086 38.8483 11.2872 38.2116 11.9021C37.575 12.517 37.5553 13.5369 38.1706 14.178ZM44.6238 34.6231L34.1671 44.4694L10.8631 19.7595L21.3231 9.9132L44.6238 34.6231ZM23.0771 16.8031C23.082 16.567 22.9967 16.3342 22.8293 16.1604L21.6906 14.9568C21.3526 14.5978 20.7832 14.5797 20.4206 14.9191L19.8037 15.4979C19.4411 15.8357 19.4263 16.4096 19.7643 16.7671L20.8965 17.9788C21.0655 18.1526 21.2886 18.2575 21.5298 18.2592C21.7677 18.269 22.7916 17.4344 22.7916 17.4344C22.9655 17.2688 23.0672 17.0425 23.0771 16.8031ZM39.265 34.9035C39.6309 34.5625 39.6441 33.9919 39.3011 33.6311L26.2093 19.7513C26.0452 19.5742 25.8221 19.4725 25.5792 19.4676C25.3446 19.4594 25.11 19.5496 24.9377 19.7103L24.3191 20.294C23.9565 20.6334 23.9401 21.2007 24.2814 21.5631L37.3716 35.4446C37.5422 35.6184 37.7621 35.7234 38.0065 35.7299C38.2461 35.7381 38.4775 35.6479 38.653 35.484L39.265 34.9035ZM9.80475 18.633L20.2615 8.78346L17.5607 5.92058L7.10566 15.7718L9.80475 18.633ZM2.44419 10.8232C1.87484 10.2198 1.57293 9.42458 1.5959 8.59818C1.62215 7.77342 1.97164 6.99621 2.57381 6.43052L8.50032 0.850699C9.74732 -0.333149 11.7163 -0.27248 12.896 0.976954L16.5697 4.87119L6.11298 14.7175L2.44419 10.8232ZM4.30976 8.68016L6.22948 10.7199L12.5678 4.75149L10.6432 2.71501L4.30976 8.68016ZM49.9285 48.6883C50.1073 49.2556 49.9449 49.8738 49.515 50.2804C49.0818 50.6887 48.4551 50.8084 47.9021 50.5969L35.4912 45.8648L45.9365 36.0152L49.9285 48.6883ZM46.6125 44.435L45.0422 39.452L38.9697 45.1761L43.8559 47.0388L46.6125 44.435Z" fill="#BA4E82"/>
</svg>
